<svg width="1141" height="956" viewBox="0 0 1141 956" fill="none" xmlns="http://www.w3.org/2000/svg">
<g clip-path="url(#clip0_4_176)">
<path d="M1001.45 489.899L987.343 489.897L987.342 483.576L994.936 483.577L994.935 476.201L1001.45 476.202L1001.45 489.899Z" fill="black"/>
<path d="M967.892 483.573L948.445 483.57L948.446 489.891L967.893 489.894L967.892 483.573Z" fill="black"/>
<path d="M928.997 489.889L914.893 489.886L914.891 476.189L921.401 476.19L921.402 483.566L928.996 483.567L928.997 489.889Z" fill="black"/>
<path d="M921.396 438.426L914.885 438.425L914.888 457.307L921.398 457.308L921.396 438.426Z" fill="black"/>
<path d="M921.393 419.542L914.883 419.541L914.881 405.846L928.985 405.849L928.986 412.17L921.392 412.169L921.393 419.542Z" fill="black"/>
<path d="M967.877 405.855L948.43 405.852L948.431 412.173L967.878 412.176L967.877 405.855Z" fill="black"/>
<path d="M1001.44 419.554L994.927 419.553L994.926 412.18L987.332 412.179L987.331 405.858L1001.44 405.86L1001.44 419.554Z" fill="black"/>
<path d="M1001.44 438.438L994.929 438.437L994.932 457.319L1001.44 457.32L1001.44 438.438Z" fill="black"/>
<path d="M694.193 590.312C694.194 592.488 692.383 594.251 690.137 594.251C687.903 594.251 686.086 592.485 686.086 590.311C686.085 588.139 687.903 586.375 690.136 586.376C692.381 586.376 694.193 588.14 694.193 590.312Z" fill="white"/>
<path d="M690.135 597.412C686.107 597.412 682.829 594.227 682.828 590.312C682.827 586.4 686.105 583.214 690.133 583.214C694.165 583.215 697.445 586.4 697.446 590.315C697.448 594.229 694.169 597.413 690.135 597.412ZM690.134 589.534C689.694 589.534 689.338 589.886 689.338 590.312C689.338 590.74 689.694 591.091 690.134 591.091C690.578 591.091 690.937 590.741 690.937 590.312C690.937 589.886 690.578 589.534 690.134 589.534Z" fill="black"/>
<path d="M696.424 682.964C696.425 693.439 687.684 701.926 676.896 701.924L217.97 701.854C207.183 701.852 198.438 693.362 198.436 682.888L198.395 401.628C198.394 391.153 207.135 382.666 217.923 382.667L676.849 382.738C687.637 382.739 696.381 391.229 696.383 401.704L696.424 682.964Z" fill="#263238"/>
<path d="M676.896 705.086L217.97 705.015C205.407 705.013 195.184 695.089 195.182 682.887L195.141 401.627C195.139 389.429 205.359 379.504 217.923 379.506L676.849 379.576C689.414 379.578 699.637 389.506 699.639 401.705L699.68 682.965C699.681 695.166 689.461 705.088 676.896 705.086ZM217.924 385.827C208.95 385.826 201.65 392.915 201.651 401.63L201.692 682.89C201.694 691.604 208.996 698.695 217.969 698.696L676.895 698.766C685.869 698.768 693.171 691.68 693.169 682.965L693.128 401.704C693.127 392.989 685.823 385.897 676.849 385.896L217.924 385.825L217.924 385.827Z" fill="black"/>
<path d="M660.663 426.393L235.993 426.328L236.027 658.094L660.696 658.159L660.663 426.393Z" fill="#C7C7C7"/>
<path d="M142.817 655.317L136.446 646.791L268.077 554.105C269.945 552.794 272.46 552.763 274.351 554.038L308.505 577.001L354.506 538.252C356.42 536.64 359.227 536.527 361.271 537.987L414.777 576.121L464.891 500.762C465.805 499.389 467.32 498.504 468.999 498.373C470.665 498.223 472.324 498.862 473.457 500.074L527.792 557.975L566.019 493.971C566.978 492.366 568.732 491.372 570.641 491.346C570.665 491.346 570.687 491.346 570.711 491.346C572.596 491.346 574.344 492.296 575.332 493.855L601.256 534.751L736.132 443.162L742.351 451.795L602.762 546.586C601.537 547.415 600.011 547.715 598.551 547.428C597.089 547.133 595.815 546.264 595.033 545.03L570.852 506.885L533.464 569.481C532.596 570.933 531.069 571.899 529.349 572.075C527.632 572.252 525.925 571.629 524.761 570.385L470.184 512.227L420.768 586.537C419.957 587.754 418.664 588.596 417.194 588.859C415.723 589.114 414.207 588.783 413.001 587.924L358.347 548.966L312.437 587.639C310.568 589.215 307.832 589.36 305.795 587.99L271.34 564.825L142.817 655.317Z" fill="black"/>
<path d="M739.289 473.102L728.578 471.421L731.759 452.272L711.434 449.425L712.976 438.999L738.765 442.611C740.206 442.814 741.502 443.569 742.365 444.709C743.224 445.846 743.581 447.272 743.348 448.667L739.289 473.102Z" fill="black"/>
<path d="M504.864 707.195L390.003 707.178L390.01 761.162L504.872 761.18L504.864 707.195Z" fill="#D3766A"/>
<path d="M569.257 755.921L325.965 755.884L325.966 766.418L569.259 766.456L569.257 755.921Z" fill="black"/>
<path d="M355.949 246.09L83.1358 246.048C63.2712 246.045 47.1613 261.677 47.1641 280.971L47.1866 435.246C47.1894 454.539 63.3039 470.179 83.1685 470.182L264.237 470.21L298.53 517.22C301.351 519.968 305.922 519.969 308.745 517.222L343.018 470.222L355.984 470.224C375.848 470.227 391.955 454.593 391.952 435.299L391.93 281.024C391.927 261.73 375.814 246.093 355.949 246.09Z" fill="#D3766A"/>
<path d="M303.635 522.445C300.835 522.445 298.203 521.382 296.222 519.45C296.094 519.326 295.976 519.193 295.871 519.048L262.552 473.369L83.169 473.341C61.5376 473.338 43.9353 456.247 43.9323 435.246L43.9098 280.97C43.9067 259.967 61.5041 242.883 83.1354 242.887L355.951 242.929C377.582 242.932 395.183 260.021 395.186 281.024L395.208 435.3C395.211 456.301 377.616 473.387 355.984 473.383L344.703 473.382L311.4 519.051C311.295 519.195 311.177 519.331 311.047 519.453C309.069 521.386 306.436 522.446 303.635 522.445ZM301.005 515.15C302.458 516.41 304.816 516.41 306.269 515.147L340.361 468.396C340.972 467.559 341.961 467.062 343.018 467.062L355.983 467.064C374.025 467.067 388.7 452.816 388.698 435.3L388.675 281.025C388.673 263.508 373.993 249.254 355.952 249.251L83.1363 249.209C65.0931 249.207 50.4175 263.456 50.4201 280.973L50.4425 435.248C50.4451 452.764 65.1265 467.019 83.168 467.022L264.237 467.05C265.293 467.05 266.283 467.547 266.894 468.385L301.005 515.15Z" fill="black"/>
<path d="M257.454 291.212C242.69 291.21 228.982 298.185 220.741 309.896L219.041 311.995L217.903 310.582C209.756 298.443 196.019 291.203 181.101 291.2C155.656 291.196 137.198 309.123 137.201 333.821C137.207 370.297 205.212 424.059 210.173 427.931C212.509 430.107 215.573 431.296 218.833 431.297C222.082 431.297 225.141 430.108 227.484 427.924C232.456 424.037 301.37 369.439 301.365 333.846C301.362 309.148 282.895 291.216 257.454 291.212Z" fill="#231F20"/>
<path d="M813.507 302.327C801.072 302.326 789.519 308.204 782.579 318.068L781.147 319.838L780.184 318.646C773.32 308.421 761.745 302.319 749.18 302.318C727.744 302.314 712.19 317.416 712.193 338.226C712.197 368.961 769.494 414.256 773.673 417.518C775.639 419.348 778.224 420.356 780.968 420.356C783.71 420.357 786.285 419.35 788.262 417.515C792.448 414.235 850.514 368.237 850.509 338.247C850.505 317.437 834.945 302.331 813.507 302.327Z" fill="#263238"/>
<path d="M421.747 160.563C414.817 160.562 408.379 163.837 404.511 169.335L403.714 170.322L403.179 169.658C399.356 163.96 392.905 160.56 385.9 160.559C373.955 160.557 365.289 168.971 365.29 180.568C365.293 197.695 397.221 222.934 399.55 224.753C400.645 225.774 402.083 226.334 403.616 226.334C405.144 226.335 406.577 225.776 407.678 224.751C410.012 222.925 442.368 197.293 442.366 180.581C442.362 168.981 433.692 160.565 421.747 160.563Z" fill="#263238"/>
<path d="M562.28 345.804C612.715 345.812 653.596 306.119 653.589 257.149C653.581 208.179 612.689 168.474 562.254 168.466C511.818 168.458 470.938 208.151 470.945 257.121C470.952 306.091 511.844 345.796 562.28 345.804Z" fill="#0E3C54"/>
<path d="M562.28 348.964C510.129 348.956 467.698 307.754 467.69 257.119C467.683 206.485 510.103 165.297 562.253 165.305C614.404 165.313 656.835 206.514 656.843 257.148C656.85 307.783 614.431 348.972 562.28 348.964ZM562.254 171.626C513.695 171.618 474.194 209.971 474.201 257.12C474.208 304.27 513.72 342.635 562.279 342.642C610.838 342.65 650.339 304.297 650.333 257.147C650.327 209.998 610.815 171.633 562.254 171.626Z" fill="black"/>
<path d="M695.011 257.155L684.161 257.154C684.152 191.895 629.463 138.792 562.249 138.782L562.248 128.247C635.446 128.258 695.001 186.085 695.011 257.155Z" fill="black"/>
<path d="M557.765 261.438L627.766 261.448C625.432 294.541 597.049 320.664 562.353 320.659C526.133 320.653 496.774 292.15 496.769 256.982C496.764 223.294 523.67 195.736 557.753 193.469L557.763 261.438L557.765 261.438Z" fill="#FFA800"/>
<path d="M627.764 250.526L574.439 250.518C571.443 250.518 569.014 248.16 569.013 245.25L569.006 193.472C569.006 192.013 569.63 190.619 570.729 189.623C571.828 188.626 573.314 188.126 574.803 188.219C605.937 190.302 631.032 214.671 633.178 244.901C633.281 246.355 632.757 247.79 631.732 248.856C630.705 249.92 629.269 250.527 627.764 250.526ZM579.862 239.984L621.622 239.991C617.733 219.489 600.973 203.213 579.857 199.436L579.862 239.984Z" fill="#FFA800"/>
<path d="M231.084 160.989L231.088 186.979L227.941 186.979L227.937 164.288L227.785 164.288L221.44 168.5L221.44 165.302L227.937 160.988L231.084 160.989ZM246.685 187.337C245.196 187.337 243.855 187.04 242.662 186.448C241.469 185.856 240.513 185.043 239.793 184.011C239.074 182.979 238.68 181.803 238.613 180.483L241.658 180.483C241.777 181.659 242.31 182.632 243.258 183.402C244.214 184.164 245.356 184.545 246.684 184.545C247.75 184.545 248.698 184.296 249.527 183.797C250.365 183.298 251.02 182.612 251.494 181.741C251.976 180.861 252.217 179.867 252.217 178.759C252.217 177.625 251.967 176.614 251.468 175.726C250.977 174.829 250.3 174.122 249.437 173.606C248.574 173.09 247.588 172.827 246.48 172.819C245.684 172.81 244.868 172.933 244.03 173.186C243.193 173.432 242.503 173.749 241.962 174.138L239.018 173.782L240.589 160.99L254.092 160.992L254.093 163.784L243.23 163.783L242.317 171.448L242.469 171.448C243.002 171.025 243.67 170.674 244.474 170.395C245.278 170.116 246.115 169.976 246.987 169.976C248.577 169.976 249.995 170.357 251.238 171.119C252.491 171.872 253.472 172.904 254.183 174.216C254.902 175.527 255.262 177.025 255.262 178.709C255.263 180.367 254.891 181.847 254.146 183.15C253.41 184.445 252.395 185.468 251.101 186.221C249.807 186.965 248.335 187.337 246.685 187.337ZM273.553 182.113L273.553 180.742C273.553 179.794 273.747 178.927 274.137 178.14C274.534 177.345 275.109 176.711 275.862 176.237C276.624 175.755 277.546 175.514 278.629 175.514C279.729 175.514 280.651 175.756 281.395 176.238C282.14 176.712 282.703 177.346 283.083 178.142C283.464 178.929 283.655 179.796 283.655 180.743L283.655 182.114C283.655 183.062 283.461 183.933 283.072 184.728C282.691 185.515 282.124 186.149 281.371 186.632C280.627 187.105 279.713 187.342 278.63 187.342C277.531 187.342 276.604 187.105 275.851 186.631C275.098 186.148 274.527 185.514 274.138 184.727C273.748 183.932 273.554 183.06 273.553 182.113ZM276.142 180.742L276.142 182.113C276.142 182.9 276.329 183.606 276.701 184.232C277.073 184.85 277.716 185.159 278.63 185.159C279.518 185.159 280.144 184.851 280.508 184.233C280.88 183.607 281.066 182.901 281.066 182.114L281.066 180.743C281.066 179.956 280.888 179.254 280.533 178.636C280.177 178.01 279.543 177.697 278.629 177.697C277.741 177.697 277.102 178.01 276.713 178.636C276.332 179.253 276.142 179.956 276.142 180.742ZM260.607 167.237L260.607 165.867C260.606 164.919 260.801 164.052 261.19 163.265C261.587 162.47 262.163 161.835 262.916 161.362C263.677 160.88 264.599 160.639 265.682 160.639C266.782 160.639 267.704 160.88 268.449 161.363C269.193 161.836 269.756 162.471 270.137 163.266C270.518 164.053 270.708 164.92 270.708 165.868L270.708 167.239C270.709 168.186 270.514 169.058 270.125 169.853C269.745 170.64 269.178 171.274 268.425 171.756C267.68 172.23 266.767 172.467 265.684 172.466C264.584 172.466 263.657 172.229 262.904 171.755C262.151 171.273 261.58 170.638 261.191 169.851C260.802 169.056 260.607 168.185 260.607 167.237ZM263.195 165.867L263.196 167.237C263.196 168.024 263.382 168.731 263.754 169.357C264.127 169.975 264.77 170.283 265.683 170.284C266.572 170.284 267.198 169.975 267.562 169.358C267.934 168.731 268.12 168.025 268.12 167.238L268.119 165.868C268.119 165.081 267.942 164.379 267.586 163.761C267.231 163.135 266.596 162.822 265.682 162.822C264.794 162.821 264.155 163.134 263.766 163.76C263.386 164.378 263.195 165.08 263.195 165.867ZM261.574 186.984L279.439 160.996L282.332 160.997L264.468 186.984L261.574 186.984Z" fill="black"/>
<path d="M502.989 604.97C502.989 607.019 502.466 608.826 501.422 610.393C500.378 611.96 498.938 613.218 497.106 614.164C499.176 615.15 500.822 616.5 502.036 618.212C503.248 619.924 503.858 621.947 503.858 624.286C503.858 628.059 502.52 631.035 499.841 633.221C497.164 635.404 493.474 636.497 488.775 636.497C484.055 636.496 480.331 635.398 477.602 633.204C474.875 631.011 473.51 628.037 473.51 624.282C473.509 622.024 474.106 620.021 475.301 618.282C476.496 616.542 478.189 615.171 480.378 614.163C478.526 613.218 477.072 611.958 476.016 610.391C474.961 608.825 474.433 607.018 474.433 604.967C474.432 601.293 475.716 598.392 478.283 596.266C480.853 594.142 484.317 593.079 488.679 593.08C493.08 593.08 496.564 594.145 499.136 596.269C501.704 598.394 502.988 601.296 502.989 604.97ZM493.761 623.501C493.761 621.761 493.298 620.421 492.372 619.483C491.446 618.548 490.225 618.077 488.712 618.077C487.199 618.077 485.973 618.545 485.038 619.482C484.102 620.42 483.637 621.759 483.637 623.5C483.637 625.18 484.11 626.511 485.055 627.487C486.002 628.466 487.24 628.952 488.773 628.952C490.268 628.952 491.475 628.471 492.389 627.503C493.303 626.538 493.761 625.203 493.761 623.501ZM488.68 600.618C487.326 600.617 486.294 601.048 485.589 601.909C484.88 602.766 484.529 603.961 484.53 605.489C484.53 606.996 484.888 608.216 485.605 609.142C486.321 610.07 487.377 610.534 488.771 610.534C490.145 610.534 491.176 610.071 491.862 609.143C492.549 608.216 492.894 606.998 492.894 605.49C492.894 603.981 492.539 602.792 491.832 601.921C491.123 601.052 490.074 600.618 488.68 600.618Z" fill="white"/>
<path d="M535.671 619.417L540.091 619.418L540.092 626.959L535.672 626.958L535.673 635.921L525.607 635.919L525.606 626.957L508.788 626.954L508.19 620.979L525.601 593.777L525.601 593.689L535.667 593.69L535.671 619.417ZM517.778 619.414L525.603 619.416L525.601 606.424L524.975 607.408L517.778 619.414Z" fill="white"/>
<path d="M544.541 601.816C544.54 599.207 545.417 597.096 547.168 595.494C548.92 593.889 551.269 593.088 554.219 593.088C557.204 593.089 559.565 593.885 561.299 595.48C563.03 597.075 563.898 599.235 563.899 601.961L563.899 604.048C563.899 606.661 563.034 608.76 561.301 610.342C559.567 611.93 557.229 612.722 554.281 612.722C551.356 612.721 548.998 611.933 547.216 610.357C545.432 608.779 544.542 606.618 544.541 603.876L544.541 601.816ZM551.024 604.043C551.024 605.042 551.312 605.855 551.889 606.478C552.468 607.103 553.265 607.413 554.279 607.413C556.371 607.413 557.415 606.128 557.414 603.555L557.414 601.823C557.414 600.826 557.133 600.005 556.577 599.362C556.02 598.717 555.233 598.396 554.219 598.395C553.242 598.395 552.466 598.708 551.888 599.331C551.311 599.956 551.024 600.805 551.024 601.881L551.024 604.043ZM556.195 632.766L551.504 630.471L572.737 597.468L577.427 599.76L556.195 632.766ZM565.214 625.573C565.213 622.944 566.094 620.835 567.857 619.249C569.619 617.664 571.964 616.871 574.891 616.872C577.86 616.872 580.217 617.655 581.972 619.223C583.723 620.787 584.602 622.975 584.602 625.777L584.603 627.807C584.603 630.438 583.735 632.546 582.003 634.131C580.271 635.716 577.921 636.509 574.954 636.508C572.027 636.508 569.671 635.718 567.889 634.144C566.106 632.568 565.214 630.405 565.214 627.663L565.214 625.573ZM571.666 627.8C571.666 628.704 571.986 629.497 572.623 630.179C573.262 630.862 574.037 631.199 574.953 631.199C576.884 631.2 577.928 630.319 578.091 628.551L578.119 625.582C578.119 624.563 577.83 623.744 577.253 623.12C576.674 622.493 575.887 622.183 574.892 622.182C573.935 622.182 573.168 622.476 572.591 623.061C572.013 623.646 571.705 624.439 571.666 625.44L571.666 627.8Z" fill="white"/>
<path d="M787.962 490.901L787.966 516.892L784.818 516.891L784.815 494.201L784.663 494.201L778.318 498.413L778.318 495.215L784.815 490.901L787.962 490.901ZM796.253 516.893L807.874 493.9L807.874 493.696L794.473 493.694L794.472 490.902L811.122 490.905L811.123 493.849L799.552 516.894L796.253 516.893ZM829.105 512.025L829.105 510.654C829.105 509.707 829.299 508.84 829.688 508.053C830.086 507.258 830.661 506.623 831.414 506.15C832.175 505.668 833.097 505.427 834.18 505.427C835.28 505.427 836.202 505.668 836.947 506.15C837.692 506.624 838.254 507.259 838.635 508.054C839.016 508.841 839.206 509.708 839.207 510.656L839.207 512.027C839.207 512.974 839.012 513.846 838.623 514.641C838.243 515.428 837.676 516.062 836.923 516.544C836.179 517.018 835.265 517.255 834.182 517.254C833.082 517.254 832.156 517.017 831.403 516.543C830.65 516.061 830.078 515.426 829.689 514.639C829.3 513.844 829.105 512.973 829.105 512.025ZM831.694 510.655L831.694 512.025C831.694 512.812 831.88 513.519 832.253 514.145C832.625 514.763 833.268 515.071 834.182 515.072C835.07 515.072 835.696 514.763 836.06 514.145C836.432 513.519 836.618 512.813 836.618 512.026L836.618 510.656C836.618 509.869 836.44 509.167 836.084 508.549C835.729 507.923 835.094 507.61 834.181 507.609C833.292 507.609 832.654 507.922 832.264 508.548C831.884 509.166 831.694 509.868 831.694 510.655ZM816.158 497.15L816.158 495.779C816.158 494.831 816.352 493.964 816.741 493.178C817.139 492.382 817.714 491.748 818.467 491.274C819.229 490.792 820.151 490.551 821.234 490.551C822.333 490.551 823.256 490.793 824 491.275C824.745 491.749 825.308 492.384 825.688 493.179C826.069 493.966 826.26 494.833 826.26 495.781L826.26 497.151C826.26 498.099 826.066 498.97 825.677 499.765C825.296 500.552 824.729 501.187 823.976 501.669C823.232 502.142 822.318 502.379 821.235 502.379C820.135 502.379 819.209 502.142 818.456 501.668C817.703 501.185 817.132 500.551 816.742 499.764C816.353 498.969 816.158 498.097 816.158 497.15ZM818.747 495.779L818.747 497.15C818.747 497.937 818.934 498.643 819.306 499.269C819.678 499.887 820.321 500.196 821.235 500.196C822.123 500.196 822.749 499.888 823.113 499.27C823.485 498.644 823.671 497.938 823.671 497.151L823.671 495.78C823.671 494.993 823.493 494.291 823.138 493.673C822.782 493.047 822.148 492.734 821.234 492.734C820.346 492.734 819.707 493.047 819.318 493.673C818.937 494.29 818.747 494.993 818.747 495.779ZM817.126 516.896L834.99 490.909L837.884 490.909L820.019 516.897L817.126 516.896Z" fill="black"/>
<path d="M1089.11 319.227L941.005 319.204L941.01 354.244L1089.11 354.267L1089.11 319.227Z" fill="#263238"/>
<path d="M1082.87 290.985L991.127 290.971C988.131 290.97 985.701 288.611 985.701 285.703L985.696 250.666C985.695 247.757 988.124 245.399 991.12 245.4L1082.87 245.414C1085.86 245.414 1088.29 247.771 1088.29 250.682L1088.3 285.718C1088.3 288.627 1085.87 290.985 1082.87 290.985ZM996.552 280.435L1077.45 280.448L1077.44 255.946L996.548 255.933L996.552 280.435Z" fill="black"/>
<path d="M163.12 161.962L63.6356 161.947C60.6398 161.947 58.2103 159.589 58.2099 156.679L58.2047 121.643C58.2043 118.734 60.6331 116.376 63.6289 116.376L163.113 116.391C166.111 116.392 168.538 118.751 168.539 121.66L168.544 156.696C168.546 159.606 166.117 161.963 163.12 161.962ZM69.059 151.413L157.693 151.427L157.69 126.925L69.0554 126.912L69.059 151.413Z" fill="#263238"/>
<path d="M1089.09 183.646L884.622 183.615L884.627 218.648L1089.09 218.679L1089.09 183.646Z" fill="#FFA800"/>
<path d="M1089.09 221.84L884.627 221.809C882.83 221.809 881.373 220.394 881.372 218.647L881.367 183.614C881.367 181.867 882.825 180.455 884.621 180.455L1089.08 180.486C1090.88 180.487 1092.34 181.901 1092.34 183.646L1092.35 218.68C1092.35 220.426 1090.89 221.841 1089.09 221.84ZM887.88 215.488L1085.84 215.519L1085.83 186.805L887.876 186.775L887.88 215.488Z" fill="black"/>
<path d="M1089.08 116.618L940.975 116.596L940.981 151.629L1089.08 151.651L1089.08 116.618Z" fill="#263238"/>
<path d="M918.825 580.683L856.197 580.674L772.925 580.661L689.655 580.648L606.381 580.635L523.107 580.623L460.827 580.613C449.328 580.611 439.837 589.69 439.839 600.855L439.88 883.807L523.151 883.819L606.425 883.832L689.7 883.845L772.969 883.858L856.243 883.871L939.518 883.883L939.476 600.93C939.473 589.767 930.317 580.685 918.825 580.683Z" fill="#A6A6A6"/>
<path d="M918.828 600.892L918.866 863.667L460.87 863.596L460.832 600.821L918.828 600.892ZM918.825 580.678L460.829 580.608C449.33 580.606 440.008 589.653 440.01 600.818L440.051 883.807L939.689 883.883L939.647 600.895C939.646 589.73 930.317 580.68 918.825 580.678Z" fill="#111D22"/>
<path d="M939.689 887.043L440.052 886.966C438.254 886.966 436.797 885.55 436.797 883.806L436.756 600.817C436.754 587.929 447.552 577.446 460.828 577.448L918.826 577.518C932.101 577.52 942.9 588.009 942.902 600.895L942.943 883.884C942.943 885.629 941.487 887.043 939.689 887.043ZM443.305 880.646L936.432 880.721L936.391 600.894C936.39 591.491 928.509 583.839 918.823 583.838L460.829 583.768C451.143 583.766 443.265 591.416 443.266 600.818L443.307 880.646L443.305 880.646ZM918.866 866.828L460.87 866.758C459.073 866.758 457.614 865.341 457.614 863.596L457.576 600.821C457.575 599.075 459.034 597.661 460.831 597.661L918.829 597.732C920.628 597.732 922.085 599.148 922.085 600.892L922.123 863.667C922.124 865.413 920.666 866.828 918.866 866.828ZM464.125 860.435L915.613 860.505L915.575 604.051L464.088 603.981L464.125 860.435Z" fill="black"/>
<path d="M377.556 883.797C377.558 900.752 396.206 914.503 419.196 914.506C419.222 914.506 419.253 914.503 419.278 914.503L419.278 914.507L959.849 914.59C982.851 914.593 1001.49 900.848 1001.49 883.893L377.556 883.797Z" fill="#263238"/>
<path d="M959.851 917.749L419.281 917.666C419.217 917.666 419.154 917.664 419.091 917.661C394.284 917.544 374.304 902.397 374.301 883.796C374.301 882.053 375.758 880.637 377.555 880.637L1001.49 880.733C1003.28 880.733 1004.74 882.151 1004.74 883.893C1004.74 902.564 984.608 917.753 959.851 917.749ZM381.064 886.957C383.259 900.66 399.523 911.344 419.198 911.347L959.85 911.43C979.526 911.433 995.791 900.754 997.98 887.052L381.064 886.957Z" fill="black"/>
<path d="M731.537 893.583L710.716 893.58L668.874 893.574L648.057 893.571L627.234 893.567C627.235 902.046 636.561 908.919 648.06 908.921L731.541 908.933C743.035 908.935 752.353 902.064 752.352 893.587L731.537 893.583Z" fill="#37474F"/>
<path d="M731.54 912.093L648.058 912.08C634.781 912.078 623.98 903.772 623.978 893.565C623.978 891.822 625.434 890.406 627.232 890.406L752.35 890.425C754.147 890.426 755.604 891.844 755.604 893.585C755.608 903.793 744.812 912.095 731.54 912.093ZM631.088 896.728C633.102 901.922 639.947 905.758 648.059 905.759L731.541 905.772C739.648 905.773 746.49 901.94 748.501 896.746L631.088 896.728Z" fill="#37474F"/>
<path d="M688.284 805.849C728.932 805.855 761.879 773.866 761.873 734.399C761.867 694.933 728.911 662.934 688.264 662.927C647.616 662.921 614.669 694.91 614.675 734.377C614.681 773.843 647.637 805.842 688.284 805.849Z" fill="#FFA800"/>
<path d="M688.287 809.012C645.909 809.005 611.427 775.523 611.421 734.376C611.415 693.231 645.887 659.761 688.265 659.768C730.641 659.774 765.123 693.255 765.129 734.4C765.133 775.548 730.662 809.018 688.287 809.012ZM688.266 666.09C649.478 666.084 617.926 696.716 617.931 734.377C617.937 772.038 649.498 802.686 688.286 802.692C727.072 802.698 758.624 772.06 758.619 734.399C758.613 696.738 727.052 666.096 688.266 666.09Z" fill="black"/>
<path d="M667.891 702.29L725.159 734.407L667.901 766.48L667.891 702.29Z" fill="#263238" stroke="black"/>
<path d="M436.828 908.464C436.835 911.913 433.917 914.743 430.361 914.736L184.19 914.743C180.643 914.743 177.742 911.926 177.738 908.474L177.69 749.482C177.68 746.031 180.587 743.199 184.141 743.2L430.305 743.194C433.852 743.195 436.763 746.021 436.764 749.473L436.828 908.464Z" fill="#CF8900"/>
<path d="M184.192 917.903C184.19 917.903 184.19 917.903 184.192 917.903C178.844 917.902 174.49 913.673 174.484 908.479L174.435 749.481C174.43 746.975 175.438 744.601 177.278 742.81C179.114 741.023 181.554 740.039 184.142 740.04L430.305 740.031C435.662 740.032 440.021 744.268 440.021 749.474L440.082 908.464C440.089 910.968 439.082 913.333 437.243 915.121C435.403 916.911 432.964 917.896 430.377 917.896L184.192 917.903ZM430.306 746.351L184.143 746.358C183.294 746.358 182.493 746.682 181.885 747.275C181.277 747.866 180.942 748.646 180.946 749.472L180.993 908.473C180.995 910.185 182.429 911.58 184.189 911.58L430.359 911.573C431.224 911.573 432.027 911.246 432.636 910.652C433.243 910.064 433.576 909.288 433.574 908.472L433.513 749.471C433.511 747.779 432.044 746.351 430.306 746.351Z" fill="black"/>
<path d="M306.91 804.512L177.74 905.848L177.74 908.474C177.744 911.926 180.643 914.743 184.191 914.743L430.363 914.736C433.919 914.743 436.839 911.913 436.83 908.464L436.821 905.856L306.91 804.512Z" fill="#FFA800"/>
<path d="M184.192 917.903C184.191 917.903 184.191 917.903 184.192 917.903C178.844 917.902 174.491 913.673 174.485 908.479L174.484 905.847C174.484 904.893 174.927 903.991 175.693 903.389L304.865 802.053C306.053 801.119 307.754 801.116 308.949 802.049L438.858 903.391C439.623 903.988 440.07 904.889 440.074 905.847L440.083 908.455C440.09 910.968 439.082 913.333 437.244 915.121C435.404 916.911 432.966 917.896 430.378 917.896C430.378 917.896 430.378 917.896 430.376 917.896L184.192 917.903ZM180.995 907.359L180.995 908.475C180.997 910.187 182.432 911.581 184.191 911.582L430.361 911.575L430.363 911.575C431.226 911.575 432.029 911.247 432.638 910.654C433.246 910.066 433.578 909.29 433.576 908.473L433.572 907.373L306.92 808.572L180.995 907.359Z" fill="black"/>
<path d="M436.765 749.472C436.765 746.019 433.854 743.193 430.307 743.193L184.142 743.198C180.589 743.197 177.682 746.029 177.691 749.48L177.683 750.449L298.448 847.065C303.476 851.085 311.715 851.079 316.756 847.054L436.779 750.881L436.765 749.472Z" fill="#4A4946"/>
<path d="M307.585 853.237C303.367 853.237 299.387 851.911 296.378 849.506L175.614 752.888C174.855 752.282 174.418 751.374 174.427 750.423L174.435 749.456C174.43 746.976 175.438 744.603 177.278 742.811C179.114 741.025 181.554 740.041 184.142 740.041L430.305 740.033C435.661 740.033 440.021 744.269 440.021 749.475L440.032 750.863C440.04 751.814 439.604 752.718 438.849 753.324L318.825 849.494C315.8 851.909 311.808 853.238 307.585 853.237ZM180.983 748.995L300.515 844.626C302.335 846.083 304.912 846.918 307.582 846.918C310.263 846.918 312.851 846.079 314.685 844.614L433.509 749.403C433.458 747.73 432.011 746.351 430.306 746.35L184.143 746.357C183.294 746.357 182.493 746.681 181.885 747.275C181.397 747.75 181.084 748.35 180.983 748.995Z" fill="black"/>
<path d="M397.069 914.134C386.342 914.132 377.559 905.646 377.557 895.221L377.523 661.42C377.522 650.997 386.302 642.463 397.029 642.465L510.27 642.482C520.99 642.484 529.778 651.02 529.779 661.444L529.813 895.244C529.815 905.668 521.031 914.153 510.309 914.151L397.069 914.134Z" fill="#263238"/>
<path d="M510.31 917.31L397.069 917.292C384.517 917.29 374.305 907.389 374.303 895.221L374.269 661.42C374.267 649.225 384.477 639.301 397.028 639.303L510.269 639.321C522.819 639.323 533.032 649.249 533.034 661.444L533.068 895.245C533.07 907.414 522.86 917.312 510.31 917.31ZM397.029 645.625C388.068 645.623 380.778 652.709 380.779 661.421L380.813 895.222C380.814 903.905 388.106 910.971 397.068 910.973L510.309 910.99C519.269 910.992 526.559 903.927 526.557 895.244L526.523 661.443C526.522 652.732 519.23 645.643 510.27 645.642L397.029 645.625Z" fill="#263238"/>
<path d="M470.555 894.572C470.555 897.079 468.486 899.099 465.908 899.099L441.457 899.095C438.91 899.095 436.785 897.073 436.785 894.567L436.784 892.665C436.784 890.197 438.908 888.141 441.456 888.142L465.906 888.146C468.483 888.146 470.554 890.201 470.555 892.671L470.555 894.572Z" fill="#455A64"/>
<path d="M465.91 902.26L441.459 902.257C437.089 902.256 433.533 898.803 433.532 894.566L433.532 892.665C433.531 888.428 437.086 884.983 441.457 884.984L465.908 884.987C470.264 884.988 473.81 888.434 473.811 892.671L473.811 894.573C473.812 898.809 470.267 902.261 465.91 902.26ZM441.458 891.305C440.703 891.305 440.042 891.941 440.042 892.666L440.042 894.567C440.043 895.307 440.69 895.934 441.458 895.934L465.909 895.938C466.69 895.938 467.301 895.338 467.301 894.572L467.3 892.67C467.3 891.932 466.662 891.309 465.908 891.309L441.458 891.305Z" fill="#263238"/>
<path d="M459.293 663.002C459.293 666.017 456.805 668.47 453.679 668.469C450.529 668.469 448.036 666.015 448.036 663C448.035 660.012 450.527 657.537 453.677 657.537C456.803 657.538 459.293 660.013 459.293 663.002Z" fill="#455A64"/>
<path d="M453.679 671.627C448.773 671.627 444.782 667.757 444.781 663C444.781 658.246 448.771 654.377 453.677 654.378C458.566 654.378 462.548 658.247 462.549 663.002C462.548 667.759 458.568 671.628 453.679 671.627ZM453.678 660.699C452.361 660.699 451.292 661.731 451.292 663.001C451.292 664.292 452.34 665.308 453.678 665.308C455.002 665.308 456.039 664.294 456.039 663.001C456.037 661.731 454.979 660.699 453.678 660.699Z" fill="#263238"/>
<path d="M518.732 683.575L388.571 683.555L388.599 873.094L518.76 873.114L518.732 683.575Z" fill="#C7C6C6"/>
<path d="M1070.04 911.074L84.8625 910.923L84.8634 917.244L1070.04 917.395L1070.04 911.074Z" fill="black"/>
<path d="M1058.43 594.949C1058.45 594.444 1058.47 593.942 1058.47 593.432C1058.47 558.164 1029.05 529.572 992.765 529.567C967.66 529.563 945.851 543.251 934.794 563.364C931.346 562.169 927.652 561.487 923.786 561.486C905.64 561.483 890.937 575.777 890.94 593.406C890.94 593.439 890.945 593.472 890.945 593.509C861.629 595.155 838.386 618.771 838.39 647.679C838.394 677.652 863.4 701.955 894.241 701.959L1045.35 701.983C1076.19 701.987 1101.19 677.692 1101.19 647.719C1101.18 622.13 1082.96 600.681 1058.43 594.949Z" fill="#455A64"/>
<path d="M1045.35 705.142L894.243 705.119C861.658 705.114 835.142 679.345 835.137 647.676C835.133 618.245 858.04 593.703 887.812 590.59C889.331 572.508 904.885 558.32 923.789 558.323C926.965 558.324 930.137 558.745 933.246 559.578C945.613 539.044 968.172 526.4 992.767 526.404C1030.48 526.41 1061.22 555.987 1061.72 592.523C1087 599.573 1104.44 621.916 1104.44 647.716C1104.45 679.387 1077.94 705.147 1045.35 705.142ZM923.789 564.646C907.469 564.643 894.194 577.543 894.196 593.406C894.196 595.08 892.856 596.564 891.134 596.664C863.381 598.222 841.642 620.629 841.646 647.677C841.65 675.862 865.243 698.794 894.242 698.798L1045.35 698.821C1074.35 698.826 1097.94 675.902 1097.93 647.717C1097.93 623.996 1081.37 603.563 1057.67 598.019C1056.18 597.673 1055.14 596.362 1055.18 594.872L1055.2 594.284C1055.21 594 1055.22 593.715 1055.22 593.429C1055.22 559.962 1027.2 532.73 992.768 532.725C969.674 532.721 948.565 545.03 937.667 564.849C936.907 566.232 935.221 566.86 933.704 566.338C930.458 565.217 927.123 564.646 923.789 564.646Z" fill="black"/>
<path d="M205.414 802.307L191.308 802.305L191.307 795.984L198.903 795.985L198.902 788.612L205.412 788.613L205.414 802.307Z" fill="black"/>
<path d="M172.277 802.302L153.246 802.299L153.246 795.978L172.276 795.981L172.277 802.302ZM134.214 802.296L115.183 802.293L115.182 795.972L134.213 795.975L134.214 802.296ZM96.1519 802.29L77.1209 802.288L77.12 795.966L96.1509 795.969L96.1519 802.29Z" fill="black"/>
<path d="M58.0899 802.285L43.9858 802.283L43.9838 788.588L50.4923 788.589L50.4934 795.963L58.089 795.964L58.0899 802.285Z" fill="black"/>
<path d="M50.4885 750.822L43.9783 750.821L43.981 769.703L50.4913 769.704L50.4885 750.822Z" fill="black"/>
<path d="M50.4841 731.941L43.9755 731.94L43.9735 718.243L58.0777 718.245L58.0786 724.566L50.483 724.565L50.4841 731.941Z" fill="black"/>
<path d="M172.264 724.584L153.233 724.581L153.232 718.259L172.263 718.262L172.264 724.584ZM134.202 724.578L115.171 724.575L115.171 718.254L134.202 718.257L134.202 724.578ZM96.1388 724.572L77.1079 724.569L77.1069 718.248L96.1379 718.251L96.1388 724.572Z" fill="black"/>
<path d="M205.404 731.965L198.894 731.964L198.893 724.588L191.297 724.587L191.296 718.265L205.402 718.268L205.404 731.965Z" fill="black"/>
<path d="M205.407 750.844L198.896 750.843L198.899 769.725L205.41 769.726L205.407 750.844Z" fill="black"/>
<path d="M472.621 121.346L458.517 121.343L458.516 115.021L466.11 115.022L466.109 107.649L472.619 107.65L472.621 121.346Z" fill="black"/>
<path d="M439.485 121.341L420.454 121.338L420.453 115.016L439.484 115.019L439.485 121.341ZM401.423 121.335L382.392 121.332L382.391 115.011L401.422 115.014L401.423 121.335ZM363.361 121.329L344.33 121.326L344.329 115.005L363.36 115.008L363.361 121.329Z" fill="black"/>
<path d="M325.297 121.323L311.191 121.321L311.189 107.625L317.701 107.626L317.702 114.999L325.296 115L325.297 121.323Z" fill="black"/>
<path d="M317.696 69.8585L311.184 69.8575L311.187 88.7395L317.699 88.7405L317.696 69.8585Z" fill="black"/>
<path d="M317.693 50.9764L311.181 50.9754L311.179 37.281L325.285 37.2832L325.286 43.6043L317.692 43.6031L317.693 50.9764Z" fill="black"/>
<path d="M439.472 43.6219L420.441 43.619L420.44 37.2978L439.471 37.3007L439.472 43.6219ZM401.41 43.616L382.379 43.6131L382.378 37.292L401.409 37.2949L401.41 43.616ZM363.348 43.6102L344.317 43.6073L344.316 37.2861L363.347 37.2891L363.348 43.6102Z" fill="black"/>
<path d="M472.611 51.0002L466.101 50.9992L466.1 43.6259L458.506 43.6247L458.505 37.3036L472.609 37.3058L472.611 51.0002Z" fill="black"/>
<path d="M472.614 69.8822L466.104 69.8812L466.107 88.7632L472.617 88.7642L472.614 69.8822Z" fill="black"/>
</g>
<defs>
<clipPath id="clip0_4_176">
<rect width="1140.86" height="955.825" fill="white" transform="matrix(1 0.000153538 0.000145738 1 0 0)"/>
</clipPath>
</defs>
</svg>
