<svg width="200" height="200" viewBox="0 0 200 200" fill="none" xmlns="http://www.w3.org/2000/svg">
<path fill-rule="evenodd" clip-rule="evenodd" d="M99.84 0C154.943 0 199.68 44.7369 199.68 99.84C199.68 154.943 154.943 199.68 99.84 199.68C44.7369 199.68 0 154.943 0 99.84C0 44.7369 44.7369 0 99.84 0ZM99.84 37.44C82.8933 37.44 80.7682 37.5118 74.1125 37.8156C67.4708 38.1186 62.9347 39.1735 58.9653 40.716C54.8621 42.3107 51.3821 44.4444 47.9131 47.9134C44.444 51.3825 42.3103 54.8625 40.7156 58.9657C39.1732 62.9347 38.1186 67.4708 37.8152 74.1125C37.5118 80.7682 37.44 82.8933 37.44 99.84C37.44 116.787 37.5118 118.912 37.8152 125.568C38.1186 132.209 39.1732 136.745 40.7156 140.714C42.3103 144.818 44.444 148.297 47.9131 151.767C51.3821 155.236 54.8621 157.37 58.9653 158.964C62.9347 160.506 67.4708 161.561 74.1125 161.864C80.7682 162.168 82.8933 162.24 99.84 162.24C116.787 162.24 118.912 162.168 125.568 161.864C132.209 161.561 136.745 160.506 140.714 158.964C144.818 157.37 148.297 155.236 151.767 151.767C155.236 148.297 157.37 144.818 158.964 140.714C160.506 136.745 161.561 132.209 161.864 125.568C162.168 118.912 162.24 116.787 162.24 99.84C162.24 82.8933 162.168 80.7682 161.864 74.1125C161.561 67.4708 160.506 62.9347 158.964 58.9657C157.37 54.8625 155.236 51.3825 151.767 47.9134C148.297 44.4444 144.818 42.3107 140.714 40.716C136.745 39.1735 132.209 38.1186 125.568 37.8156C118.912 37.5118 116.787 37.44 99.84 37.44ZM99.84 48.6833C116.502 48.6833 118.475 48.7469 125.055 49.0472C131.139 49.3249 134.443 50.3412 136.642 51.1957C139.554 52.3275 141.633 53.68 143.816 55.8636C146 58.0468 147.353 60.1259 148.484 63.0384C149.339 65.2372 150.356 68.5409 150.633 74.6249C150.933 81.205 150.997 83.1784 150.997 99.84C150.997 116.502 150.933 118.475 150.633 125.055C150.356 131.139 149.339 134.443 148.484 136.642C147.353 139.554 146 141.633 143.816 143.816C141.633 146 139.554 147.353 136.642 148.484C134.443 149.339 131.139 150.356 125.055 150.633C118.476 150.933 116.503 150.997 99.84 150.997C83.1772 150.997 81.2042 150.933 74.6249 150.633C68.5409 150.356 65.2372 149.339 63.0384 148.484C60.1255 147.353 58.0468 146 55.8632 143.816C53.6796 141.633 52.3275 139.554 51.1957 136.642C50.3412 134.443 49.3245 131.139 49.0468 125.055C48.7465 118.475 48.6833 116.502 48.6833 99.84C48.6833 83.1784 48.7465 81.205 49.0468 74.6249C49.3245 68.5409 50.3412 65.2372 51.1957 63.0384C52.3275 60.1259 53.6796 58.0468 55.8632 55.8636C58.0468 53.68 60.1255 52.3275 63.0384 51.1957C65.2372 50.3412 68.5409 49.3249 74.6249 49.0472C81.205 48.7469 83.1784 48.6833 99.84 48.6833ZM99.84 67.7968C82.143 67.7968 67.7968 82.143 67.7968 99.84C67.7968 117.537 82.143 131.883 99.84 131.883C117.537 131.883 131.883 117.537 131.883 99.84C131.883 82.143 117.537 67.7968 99.84 67.7968ZM99.84 120.64C88.3525 120.64 79.0401 111.327 79.0401 99.84C79.0401 88.3525 88.3525 79.0401 99.84 79.0401C111.327 79.0401 120.64 88.3525 120.64 99.84C120.64 111.327 111.327 120.64 99.84 120.64ZM140.638 66.5309C140.638 70.6664 137.285 74.0185 133.149 74.0185C129.014 74.0185 125.662 70.6664 125.662 66.5309C125.662 62.3953 129.014 59.0429 133.149 59.0429C137.285 59.0429 140.638 62.3953 140.638 66.5309Z" fill="#455A64"/>
</svg>
