<svg width="200" height="200" viewBox="0 0 200 200" fill="none" xmlns="http://www.w3.org/2000/svg">
<path d="M99.84 0C44.6999 0 0 44.6999 0 99.84C0 154.98 44.6999 199.68 99.84 199.68C154.98 199.68 199.68 154.98 199.68 99.84C199.68 44.6999 154.98 0 99.84 0ZM151.733 63.155L134 147.81C133.786 148.834 133.318 149.787 132.638 150.583C131.959 151.379 131.091 151.991 130.113 152.363C129.136 152.736 128.08 152.857 127.044 152.715C126.007 152.573 125.023 152.173 124.181 151.551L98.3884 132.495L82.7619 147.237C82.5574 147.43 82.3164 147.581 82.0531 147.68C81.7899 147.778 81.5096 147.824 81.2286 147.813C80.9475 147.802 80.6715 147.736 80.4165 147.617C80.1615 147.499 79.9326 147.331 79.7433 147.123L79.4075 146.754L82.1227 120.478L131.061 75.7637C131.303 75.543 131.454 75.2395 131.483 74.9133C131.513 74.587 131.418 74.2616 131.22 74.0013C131.021 73.7409 130.732 73.5646 130.409 73.507C130.087 73.4494 129.754 73.5147 129.478 73.6901L66.8908 113.302L39.936 104.25C39.2193 104.009 38.5946 103.552 38.1477 102.942C37.7008 102.333 37.4536 101.599 37.4399 100.843C37.4262 100.087 37.6468 99.3458 38.0714 98.7202C38.4959 98.0945 39.1037 97.6156 39.8112 97.3491L145.275 57.6202C146.089 57.314 146.969 57.232 147.825 57.3828C148.681 57.5336 149.481 57.9115 150.141 58.4772C150.801 59.0428 151.297 59.7754 151.577 60.5983C151.857 61.4212 151.911 62.3042 151.733 63.155Z" fill="#455A64"/>
</svg>
