<svg width="200" height="200" viewBox="0 0 200 200" fill="none" xmlns="http://www.w3.org/2000/svg">
<path d="M99.9775 0C44.7615 0 0 44.7696 0 99.9775C0 155.193 44.7615 199.947 99.9775 199.947C155.193 199.947 199.947 155.193 199.947 99.9775C199.947 44.7696 155.189 0 99.9775 0ZM150.338 79.8196C150.391 80.8996 150.411 81.9836 150.411 83.0798C150.411 116.376 125.068 154.763 78.7275 154.763C64.5012 154.763 51.2534 150.594 40.1047 143.448C42.0778 143.679 44.0794 143.797 46.1135 143.797C57.92 143.797 68.7845 139.77 77.4039 133.014C66.381 132.807 57.0795 125.519 53.8721 115.511C55.4068 115.812 56.9862 115.962 58.6102 115.962C60.9081 115.962 63.133 115.661 65.2483 115.081C53.7179 112.766 45.0335 102.576 45.0335 90.3797C45.0335 90.27 45.0335 90.1645 45.0376 90.0549C48.4317 91.9428 52.3172 93.0755 56.4502 93.2095C49.6863 88.6826 45.2406 80.9808 45.2406 72.2355C45.2406 67.6193 46.4829 63.2873 48.651 59.5683C61.0786 74.8096 79.645 84.8418 100.586 85.8893C100.156 84.0501 99.9328 82.1216 99.9328 80.1485C99.9328 66.2389 111.212 54.9562 125.129 54.9562C132.376 54.9562 138.921 58.0174 143.517 62.9097C149.258 61.7851 154.649 59.682 159.517 56.7953C157.63 62.6823 153.639 67.6193 148.434 70.7333C153.537 70.1243 158.393 68.7683 162.907 66.7667C159.538 71.8295 155.263 76.2671 150.338 79.8196Z" fill="#455A64"/>
</svg>
