<svg width="200" height="200" viewBox="0 0 200 200" fill="none" xmlns="http://www.w3.org/2000/svg">
<path d="M100.011 0.0195919C86.7658 -0.245225 73.6046 2.17694 61.3217 7.13987C49.0387 12.1028 37.8888 19.5036 28.5449 28.8954C19.201 38.2872 11.8569 49.4753 6.95616 61.7842C2.05538 74.0931 -0.300537 87.2676 0.0306472 100.512C0.0488733 124.607 8.7062 147.896 24.4306 166.151C40.155 184.406 61.9038 196.416 85.7278 200V122.046H57.1621V93.3342H85.7278V64.622C85.3427 60.7687 85.8158 56.8779 87.1131 53.2292C88.4103 49.5805 90.4996 46.2644 93.2308 43.5192C95.9619 40.7741 99.2671 38.668 102.909 37.3523C106.551 36.0367 110.439 35.544 114.294 35.9099H142.859V64.622H122.435C120.406 64.5049 118.413 65.193 116.889 66.537C115.364 67.881 114.432 69.7723 114.294 71.7999V93.334H142.859L139.289 122.046H114.294V200C138.141 196.47 159.923 184.475 175.658 166.208C191.392 147.942 200.029 124.623 199.991 100.512C200.172 87.3078 197.713 74.2001 192.759 61.959C187.805 49.7179 180.455 38.59 171.141 29.2288C161.828 19.8675 150.738 12.4615 138.523 7.44554C126.308 2.42962 113.215 -0.0951082 100.011 0.0195919Z" fill="#455A64"/>
</svg>
